<svg width="24" height="24" viewBox="0 0 24 24" fill="none" xmlns="http://www.w3.org/2000/svg">
<g clip-path="url(#clip0_1920_11162)">
<path fill-rule="evenodd" clip-rule="evenodd" d="M5.74209 0L14.3999 0.111538L21.5999 7.2V20.8756C21.5999 22.6027 20.1052 24 18.2641 24H5.74209C3.89459 24 2.3999 22.6027 2.3999 20.8756V3.12443C2.39987 1.3973 3.89455 0 5.74209 0Z" fill="#7F56D9"/>
<path d="M6.55364 19.2V15.2727H8.10307C8.40094 15.2727 8.65471 15.3296 8.86436 15.4433C9.07402 15.5558 9.23382 15.7125 9.34377 15.9132C9.45499 16.1126 9.5106 16.3427 9.5106 16.6035C9.5106 16.8643 9.45435 17.0944 9.34185 17.2938C9.22935 17.4933 9.06635 17.6486 8.85286 17.7598C8.64064 17.871 8.38368 17.9267 8.08198 17.9267H7.09441V17.2612H7.94774C8.10755 17.2612 8.23922 17.2338 8.34277 17.1788C8.4476 17.1225 8.52559 17.0452 8.57672 16.9468C8.62914 16.847 8.65534 16.7326 8.65534 16.6035C8.65534 16.4731 8.62914 16.3593 8.57672 16.2622C8.52559 16.1637 8.4476 16.0877 8.34277 16.034C8.23794 15.979 8.10499 15.9515 7.94391 15.9515H7.38397V19.2H6.55364ZM13.3348 15.2727V19.2H12.6176L10.909 16.7281H10.8803V19.2H10.0499V15.2727H10.7786L12.4738 17.7426H12.5083V15.2727H13.3348ZM16.6249 16.5421C16.5981 16.4488 16.5604 16.3664 16.5118 16.2948C16.4632 16.2219 16.4038 16.1605 16.3335 16.1107C16.2644 16.0595 16.1852 16.0205 16.0957 15.9937C16.0075 15.9669 15.9097 15.9534 15.8023 15.9534C15.6016 15.9534 15.4252 16.0033 15.273 16.103C15.1222 16.2027 15.0046 16.3478 14.9202 16.5383C14.8358 16.7275 14.7936 16.9589 14.7936 17.2325C14.7936 17.5061 14.8352 17.7387 14.9183 17.9305C15.0014 18.1223 15.119 18.2686 15.2711 18.3696C15.4232 18.4693 15.6029 18.5192 15.81 18.5192C15.9979 18.5192 16.1583 18.486 16.2913 18.4195C16.4255 18.3517 16.5278 18.2565 16.5981 18.1338C16.6697 18.011 16.7055 17.8659 16.7055 17.6985L16.8742 17.7234H15.8617V17.0982H17.5051V17.593C17.5051 17.9382 17.4323 18.2348 17.2865 18.4828C17.1408 18.7295 16.9401 18.92 16.6844 19.0542C16.4287 19.1872 16.136 19.2536 15.8061 19.2536C15.4379 19.2536 15.1145 19.1725 14.8358 19.0101C14.5571 18.8465 14.3398 18.6144 14.1838 18.314C14.0291 18.0123 13.9518 17.6544 13.9518 17.2402C13.9518 16.9218 13.9978 16.638 14.0899 16.3887C14.1832 16.1382 14.3136 15.9259 14.4811 15.7521C14.6485 15.5782 14.8435 15.4459 15.0659 15.3551C15.2884 15.2644 15.5293 15.219 15.7889 15.219C16.0113 15.219 16.2184 15.2516 16.4102 15.3168C16.6019 15.3807 16.772 15.4715 16.9203 15.5891C17.0698 15.7067 17.1919 15.8467 17.2865 16.009C17.3811 16.1701 17.4418 16.3478 17.4687 16.5421H16.6249Z" fill="white"/>
<path d="M14.4153 4.896V0L21.5999 7.2H16.8102C14.6548 7.2 14.3155 5.664 14.4153 4.896Z" fill="white" fill-opacity="0.3"/>
</g>
<defs>
<clipPath id="clip0_1920_11162">
<rect width="24" height="24" fill="white"/>
</clipPath>
</defs>
</svg>
