<svg width="24" height="24" viewBox="0 0 24 24" fill="none" xmlns="http://www.w3.org/2000/svg">
<path fill-rule="evenodd" clip-rule="evenodd" d="M5.81667 0H14.3999L21.5999 7.2V20.8755C21.5999 22.6027 20.1052 24 18.2641 24H5.74209C3.89459 24 2.3999 22.6027 2.3999 20.8755V3.1244C2.39987 1.39727 3.96914 0 5.81667 0Z" fill="#D92D20"/>
<path d="M14.4153 4.896V0L21.5999 7.2H16.8102C14.6548 7.2 14.3155 5.664 14.4153 4.896Z" fill="white" fill-opacity="0.3"/>
<path d="M7.04934 19.2V15.2727H8.59878C8.89664 15.2727 9.15041 15.3296 9.36007 15.4433C9.56973 15.5558 9.72953 15.7125 9.83947 15.9132C9.95069 16.1126 10.0063 16.3427 10.0063 16.6035C10.0063 16.8643 9.95005 17.0944 9.83755 17.2938C9.72505 17.4933 9.56206 17.6486 9.34856 17.7598C9.13635 17.871 8.87939 17.9267 8.57768 17.9267H7.59011V17.2612H8.44345C8.60325 17.2612 8.73493 17.2338 8.83848 17.1788C8.94331 17.1225 9.02129 17.0452 9.07243 16.9468C9.12484 16.847 9.15105 16.7326 9.15105 16.6035C9.15105 16.4731 9.12484 16.3593 9.07243 16.2622C9.02129 16.1637 8.94331 16.0877 8.83848 16.034C8.73365 15.979 8.60069 15.9515 8.43961 15.9515H7.87967V19.2H7.04934ZM11.9378 19.2H10.5456V15.2727H11.9493C12.3444 15.2727 12.6844 15.3513 12.9695 15.5085C13.2546 15.6645 13.4738 15.8889 13.6272 16.1816C13.7819 16.4744 13.8593 16.8247 13.8593 17.2325C13.8593 17.6416 13.7819 17.9931 13.6272 18.2872C13.4738 18.5812 13.2533 18.8068 12.9657 18.9641C12.6793 19.1213 12.3367 19.2 11.9378 19.2ZM11.376 18.4885H11.9033C12.1488 18.4885 12.3552 18.4451 12.5227 18.3581C12.6914 18.2699 12.818 18.1338 12.9024 17.9497C12.988 17.7643 13.0309 17.5252 13.0309 17.2325C13.0309 16.9423 12.988 16.7051 12.9024 16.521C12.818 16.337 12.6921 16.2014 12.5246 16.1145C12.3571 16.0276 12.1507 15.9841 11.9052 15.9841H11.376V18.4885ZM14.4743 19.2V15.2727H17.0746V15.9573H15.3047V16.8931H16.902V17.5776H15.3047V19.2H14.4743Z" fill="white"/>
</svg>
