<svg width="24" height="24" viewBox="0 0 24 24" fill="none" xmlns="http://www.w3.org/2000/svg">
<path fill-rule="evenodd" clip-rule="evenodd" d="M5.74209 0H14.3999L21.5999 7.2V20.8756C21.5999 22.6027 20.1052 24 18.2641 24H5.74209C3.89459 24 2.3999 22.6027 2.3999 20.8756V3.12443C2.39987 1.3973 3.89455 0 5.74209 0Z" fill="#343A3E"/>
<path d="M6.65455 15.9573V15.2727H9.87998V15.9573H8.67764V19.2H7.8569V15.9573H6.65455ZM11.1897 15.2727L11.9817 16.6112H12.0124L12.8082 15.2727H13.7459L12.5474 17.2363L13.7727 19.2H12.8178L12.0124 17.8595H11.9817L11.1763 19.2H10.2251L11.4543 17.2363L10.2482 15.2727H11.1897ZM14.1217 15.9573V15.2727H17.3472V15.9573H16.1448V19.2H15.3241V15.9573H14.1217Z" fill="white"/>
<path d="M14.4153 4.896V0L21.5999 7.2H16.8102C14.6548 7.2 14.3155 5.664 14.4153 4.896Z" fill="white" fill-opacity="0.3"/>
</svg>
