<svg width="24" height="24" viewBox="0 0 24 24" fill="none" xmlns="http://www.w3.org/2000/svg">
<g clip-path="url(#clip0_1931_19392)">
<path fill-rule="evenodd" clip-rule="evenodd" d="M5.74209 0L14.3999 0.111538L21.5999 7.2V20.8756C21.5999 22.6027 20.1052 24 18.2641 24H5.74209C3.89459 24 2.3999 22.6027 2.3999 20.8756V3.12443C2.39987 1.3973 3.89455 0 5.74209 0Z" fill="#7F56D9"/>
<path d="M8.57169 15.2727H9.39243V18.011C9.39243 18.2642 9.33554 18.484 9.22176 18.6707C9.10926 18.8573 8.95265 19.0012 8.75194 19.1022C8.55123 19.2031 8.31792 19.2536 8.05201 19.2536C7.81551 19.2536 7.60074 19.2121 7.4077 19.129C7.21594 19.0446 7.0638 18.9168 6.9513 18.7455C6.8388 18.5729 6.78319 18.3562 6.78447 18.0954H7.61096C7.61352 18.199 7.63461 18.2878 7.67425 18.362C7.71515 18.4348 7.77076 18.4911 7.84108 18.5307C7.91267 18.5691 7.99704 18.5882 8.0942 18.5882C8.19648 18.5882 8.28277 18.5665 8.35308 18.523C8.42467 18.4783 8.479 18.4131 8.51608 18.3274C8.55315 18.2418 8.57169 18.1363 8.57169 18.011V15.2727ZM10.0789 19.2V15.2727H11.6284C11.9262 15.2727 12.18 15.3296 12.3897 15.4433C12.5993 15.5558 12.7591 15.7125 12.8691 15.9132C12.9803 16.1126 13.0359 16.3427 13.0359 16.6035C13.0359 16.8643 12.9796 17.0944 12.8671 17.2938C12.7546 17.4933 12.5916 17.6486 12.3782 17.7598C12.1659 17.871 11.909 17.9267 11.6073 17.9267H10.6197V17.2612H11.473C11.6328 17.2612 11.7645 17.2338 11.8681 17.1788C11.9729 17.1225 12.0509 17.0452 12.102 16.9468C12.1544 16.847 12.1806 16.7326 12.1806 16.6035C12.1806 16.4731 12.1544 16.3593 12.102 16.2622C12.0509 16.1637 11.9729 16.0877 11.8681 16.034C11.7632 15.979 11.6303 15.9515 11.4692 15.9515H10.9093V19.2H10.0789ZM16.1793 16.5421C16.1525 16.4488 16.1148 16.3664 16.0662 16.2948C16.0176 16.2219 15.9582 16.1605 15.8879 16.1107C15.8188 16.0595 15.7396 16.0205 15.6501 15.9937C15.5619 15.9669 15.4641 15.9534 15.3567 15.9534C15.156 15.9534 14.9796 16.0033 14.8274 16.103C14.6766 16.2027 14.559 16.3478 14.4746 16.5383C14.3902 16.7275 14.348 16.9589 14.348 17.2325C14.348 17.5061 14.3896 17.7387 14.4727 17.9305C14.5558 18.1223 14.6734 18.2686 14.8255 18.3696C14.9776 18.4693 15.1573 18.5192 15.3644 18.5192C15.5523 18.5192 15.7127 18.486 15.8457 18.4195C15.9799 18.3517 16.0822 18.2565 16.1525 18.1338C16.2241 18.011 16.2599 17.8659 16.2599 17.6985L16.4286 17.7234H15.4161V17.0982H17.0595V17.593C17.0595 17.9382 16.9867 18.2348 16.8409 18.4828C16.6952 18.7295 16.4945 18.92 16.2388 19.0542C15.9831 19.1872 15.6903 19.2536 15.3605 19.2536C14.9923 19.2536 14.6689 19.1725 14.3902 19.0101C14.1115 18.8465 13.8942 18.6144 13.7382 18.314C13.5835 18.0123 13.5062 17.6544 13.5062 17.2402C13.5062 16.9218 13.5522 16.638 13.6443 16.3887C13.7376 16.1382 13.868 15.9259 14.0354 15.7521C14.2029 15.5782 14.3979 15.4459 14.6203 15.3551C14.8428 15.2644 15.0837 15.219 15.3433 15.219C15.5657 15.219 15.7728 15.2516 15.9646 15.3168C16.1563 15.3807 16.3264 15.4715 16.4747 15.5891C16.6242 15.7067 16.7463 15.8467 16.8409 16.009C16.9355 16.1701 16.9962 16.3478 17.0231 16.5421H16.1793Z" fill="white"/>
<path d="M14.4153 4.896V0L21.5999 7.2H16.8102C14.6548 7.2 14.3155 5.664 14.4153 4.896Z" fill="white" fill-opacity="0.3"/>
</g>
<defs>
<clipPath id="clip0_1931_19392">
<rect width="24" height="24" fill="white"/>
</clipPath>
</defs>
</svg>
