<svg width="24" height="24" viewBox="0 0 24 24" fill="none" xmlns="http://www.w3.org/2000/svg">
<g clip-path="url(#clip0_1920_11161)">
<path fill-rule="evenodd" clip-rule="evenodd" d="M5.74209 0L14.3999 0.111538L21.5999 7.2V20.8756C21.5999 22.6027 20.1052 24 18.2641 24H5.74209C3.89459 24 2.3999 22.6027 2.3999 20.8756V3.12443C2.39987 1.3973 3.89455 0 5.74209 0Z" fill="#7F56D9"/>
<path d="M6.91847 15.2727H7.7392V18.011C7.7392 18.2642 7.68232 18.484 7.56854 18.6707C7.45604 18.8573 7.29943 19.0012 7.09872 19.1022C6.89801 19.2031 6.6647 19.2536 6.39879 19.2536C6.16229 19.2536 5.94751 19.2121 5.75447 19.129C5.56271 19.0446 5.41058 18.9168 5.29808 18.7455C5.18558 18.5729 5.12997 18.3562 5.13125 18.0954H5.95774C5.9603 18.199 5.98139 18.2878 6.02102 18.362C6.06193 18.4348 6.11754 18.4911 6.18785 18.5307C6.25945 18.5691 6.34382 18.5882 6.44098 18.5882C6.54325 18.5882 6.62955 18.5665 6.69986 18.523C6.77145 18.4783 6.82578 18.4131 6.86285 18.3274C6.89993 18.2418 6.91847 18.1363 6.91847 18.011V15.2727ZM8.42571 19.2V15.2727H9.97514C10.273 15.2727 10.5268 15.3296 10.7364 15.4433C10.9461 15.5558 11.1059 15.7125 11.2158 15.9132C11.3271 16.1126 11.3827 16.3427 11.3827 16.6035C11.3827 16.8643 11.3264 17.0944 11.2139 17.2938C11.1014 17.4933 10.9384 17.6486 10.7249 17.7598C10.5127 17.871 10.2558 17.9267 9.95405 17.9267H8.96648V17.2612H9.81981C9.97962 17.2612 10.1113 17.2338 10.2148 17.1788C10.3197 17.1225 10.3977 17.0452 10.4488 16.9468C10.5012 16.847 10.5274 16.7326 10.5274 16.6035C10.5274 16.4731 10.5012 16.3593 10.4488 16.2622C10.3977 16.1637 10.3197 16.0877 10.2148 16.034C10.11 15.979 9.97706 15.9515 9.81598 15.9515H9.25604V19.2H8.42571ZM11.922 19.2V15.2727H14.5683V15.9573H12.7523V16.8931H14.4322V17.5777H12.7523V18.5154H14.576V19.2H11.922ZM17.8326 16.5421C17.8057 16.4488 17.768 16.3664 17.7194 16.2948C17.6708 16.2219 17.6114 16.1605 17.5411 16.1107C17.4721 16.0595 17.3928 16.0205 17.3033 15.9937C17.2151 15.9669 17.1173 15.9534 17.0099 15.9534C16.8092 15.9534 16.6328 16.0033 16.4806 16.103C16.3298 16.2027 16.2122 16.3478 16.1278 16.5383C16.0434 16.7275 16.0012 16.9589 16.0012 17.2325C16.0012 17.5061 16.0428 17.7387 16.1259 17.9305C16.209 18.1223 16.3266 18.2686 16.4787 18.3696C16.6309 18.4693 16.8105 18.5192 17.0176 18.5192C17.2055 18.5192 17.3659 18.486 17.4989 18.4195C17.6331 18.3517 17.7354 18.2565 17.8057 18.1338C17.8773 18.011 17.9131 17.8659 17.9131 17.6985L18.0819 17.7234H17.0694V17.0982H18.7127V17.593C18.7127 17.9382 18.6399 18.2348 18.4941 18.4828C18.3484 18.7295 18.1477 18.92 17.892 19.0542C17.6363 19.1872 17.3436 19.2536 17.0137 19.2536C16.6456 19.2536 16.3221 19.1725 16.0434 19.0101C15.7647 18.8465 15.5474 18.6144 15.3914 18.314C15.2368 18.0123 15.1594 17.6544 15.1594 17.2402C15.1594 16.9218 15.2054 16.638 15.2975 16.3887C15.3908 16.1382 15.5212 15.9259 15.6887 15.7521C15.8561 15.5782 16.0511 15.4459 16.2735 15.3551C16.496 15.2644 16.737 15.219 16.9965 15.219C17.2189 15.219 17.426 15.2516 17.6178 15.3168C17.8096 15.3807 17.9796 15.4715 18.1279 15.5891C18.2774 15.7067 18.3995 15.8467 18.4941 16.009C18.5887 16.1701 18.6495 16.3478 18.6763 16.5421H17.8326Z" fill="white"/>
<path d="M14.4153 4.896V0L21.5999 7.2H16.8102C14.6548 7.2 14.3155 5.664 14.4153 4.896Z" fill="white" fill-opacity="0.3"/>
</g>
<defs>
<clipPath id="clip0_1920_11161">
<rect width="24" height="24" fill="white"/>
</clipPath>
</defs>
</svg>
